<svg width="62" height="62" viewBox="0 0 62 62" fill="none" xmlns="http://www.w3.org/2000/svg">
<path d="M37.7636 38.3256L36.6363 37.762H25.3636L24.2363 38.3256L31 49.0364L37.7636 38.3256Z" fill="#5FE4D4"/>
<path d="M39.4545 25.3637C38.8909 25.3637 38.8909 25.9899 38.8909 25.9899V25.3637C38.8918 24.7882 38.8792 24.2127 38.8531 23.6378C36.5749 21.4188 31 21.4182 31 21.4182C31 21.4182 25.425 21.4188 23.1468 23.6378C23.1207 24.2127 23.1081 24.7882 23.1091 25.3637V29.8711L25.3636 35.5074L28.241 37.7597C28.3996 37.9378 28.5941 38.0802 28.8117 38.1778C29.0293 38.2753 29.2651 38.3257 29.5035 38.3256H32.4964C32.9789 38.3256 33.4383 38.1199 33.759 37.7597L36.6363 35.5074L38.4439 30.9888C40.0418 30.8738 40.5818 28.4501 40.5818 26.6161C40.5818 25.9899 40.0181 25.3637 39.4545 25.3637Z" fill="#F4D3A1"/>
<path d="M23.1091 25.3637V25.9899C23.1091 25.9899 23.1091 25.3637 22.5455 25.3637C21.9818 25.3637 21.4182 25.9899 21.4182 26.6161C21.4182 28.4496 21.9582 30.8738 23.5561 30.9888L25.3637 35.5074L28.241 37.7597C28.3997 37.9378 28.5942 38.0802 28.8118 38.1778C29.0294 38.2753 29.2651 38.3257 29.5036 38.3256H31V21.4182C31 21.4182 25.4251 21.4188 23.1469 23.6378C23.1208 24.2127 23.1082 24.7882 23.1091 25.3637Z" fill="#F4D3A1"/>
<path d="M28.1818 32.1256H33.8181C33.8181 32.1256 33.8181 33.8165 30.9999 33.8165C28.1818 33.8165 28.1818 32.1256 28.1818 32.1256Z" fill="#D8A353"/>
<path d="M34.3818 26.6724C35.0531 26.6724 35.6489 26.8224 36.062 27.0546C36.102 26.7339 35.9651 26.4041 35.6404 26.1584C35.0599 25.7182 34.1175 25.7182 33.5363 26.1584C33.2748 26.3568 33.1367 26.6099 33.1119 26.8686C33.5218 26.7349 33.9507 26.6687 34.3818 26.6724ZM27.6142 26.6724C26.9429 26.6724 26.3472 26.8224 25.934 27.0546C25.894 26.7339 26.031 26.4041 26.3556 26.1584C26.9362 25.7182 27.8786 25.7182 28.4597 26.1584C28.7212 26.3568 28.8593 26.6099 28.8841 26.8686C28.4742 26.7349 28.0453 26.6687 27.6142 26.6724Z" fill="#3F3F3E"/>
<path d="M32.4965 38.3256H29.5036C29.2651 38.3257 29.0293 38.2753 28.8117 38.1778C28.5941 38.0802 28.3996 37.9378 28.241 37.7597L25.3636 35.5074V38.0438C25.3636 38.0438 25.3636 42.2711 31 42.2711C36.6364 42.2711 36.6364 38.0438 36.6364 38.0438V35.5074L33.759 37.7597C33.6004 37.9378 33.4059 38.0802 33.1883 38.1778C32.9707 38.2753 32.7349 38.3257 32.4965 38.3256Z" fill="#F4D3A1"/>
<path d="M28.241 37.7597L25.3636 35.5074V38.0438C25.3636 38.0438 25.3636 42.2711 31 42.2711V38.3256H29.5036C29.2651 38.3257 29.0293 38.2753 28.8117 38.1778C28.5941 38.0802 28.3996 37.9378 28.241 37.7597Z" fill="#F4D3A1"/>
<path d="M37.7439 38.3606L37.7636 38.3273L36.6363 37.7637L31.0084 40.5711L34.2736 43.8549L37.7439 38.3606Z" fill="white"/>
<path d="M33.2546 49.0364L31.677 43.2873L32.6909 42.2739L30.9893 40.5695L29.2995 42.2592L30.3242 43.2834L28.7455 49.0364H33.2546Z" fill="#DF982C"/>
<path d="M31 49.0364V40.5802L30.9893 40.5695L29.2995 42.2592L30.3242 43.2834L28.7455 49.0364H31Z" fill="#FAB855"/>
<path d="M24.2561 38.3606L24.2363 38.3273L25.3636 37.7637L30.9915 40.5711L27.7264 43.8549L24.2561 38.3606Z" fill="white"/>
<path d="M12.9636 49.0364L15.2182 42.8364C15.565 42.085 16.1752 41.4868 16.9333 41.155L24.2364 38.3273L31 49.0364H12.9636ZM49.0364 49.0364L46.7818 42.8364C46.435 42.085 45.8248 41.4868 45.0667 41.155L37.7636 38.3273L31 49.0364H49.0364Z" fill="#3F3F3E"/>
<path d="M31.0001 49.0364L24.2364 38.3273L19.1637 40.0182L28.7455 49.0364H31.0001ZM31.0001 49.0364L37.7637 38.3273L42.8364 40.0182L33.2546 49.0364H31.0001Z" fill="#AD59D4"/>
<path d="M39.8571 23.2721C39.8718 22.1544 40.0089 20.991 39.5677 19.9555C39.034 18.7044 37.7482 17.8843 36.4281 17.3931C35.2367 16.9504 33.9722 16.7128 32.6935 16.6916C32.2024 16.6836 31.6888 16.7135 31.2637 16.9481C31.1115 17.0326 30.6168 17.0405 30.4464 17.0834C30.1952 17.1468 30.2874 17.1552 30.0386 17.0834C28.4869 16.6347 26.8143 17.0405 25.2802 17.5415C25.0099 17.6296 24.7396 17.7211 24.4865 17.8465C23.5792 18.2962 22.9539 19.1569 22.6209 20.0781C22.288 20.9994 22.217 21.986 22.1842 22.9595C22.1646 23.5394 22.1587 24.1294 22.3232 24.6878C22.5181 25.3511 22.7737 25.8619 22.6694 26.557C22.5832 27.1302 22.9377 27.6485 23.018 28.2274C23.0425 28.4037 23.0597 28.5926 23.1737 28.7335C23.2878 28.8744 23.542 28.9271 23.6556 28.7857C23.6957 28.7358 23.7109 28.6724 23.7231 28.6108C23.8744 27.8663 23.7878 27.0892 23.9699 26.3508C24.082 25.8978 24.2931 25.4682 24.369 25.0083C24.4816 24.3226 24.317 23.9423 24.3571 23.25C24.3973 22.5573 24.8791 23.1667 25.4643 22.6965C26.0178 22.1429 26.1882 21.9603 26.6029 22.2262C27.6405 22.8918 29.0814 23.1652 30.329 23.0785C30.754 23.0491 31.1678 22.9381 31.5776 22.8275C32.9472 22.4581 34.3219 22.9951 35.4285 22.1429C35.6548 21.9689 35.6991 22.6335 35.9821 22.6965C36.1819 22.7408 36.4191 22.5355 36.5357 22.6965C37.4399 23.9502 38.1166 23.9961 38.1972 25.5153C38.23 26.1577 38.3568 26.8079 38.491 27.4381C38.5772 27.8421 38.3563 28.5968 38.7887 28.5838C38.9552 28.5791 38.9444 28.2843 39.0218 28.1117C39.3694 27.3383 39.6975 26.2915 39.8062 25.3828C39.8899 24.6831 39.8478 23.976 39.8571 23.2721Z" fill="#3F3F3E"/>
</svg>
