<svg width="24" height="24" viewBox="0 0 24 24" fill="none" xmlns="http://www.w3.org/2000/svg">
<path d="M12.3172 3.07036C12.1161 2.97655 11.8839 2.97655 11.6828 3.07036L0.432838 8.32036C0.161871 8.44681 -0.00809256 8.72214 0.000296991 9.02104C0.00868649 9.31994 0.193826 9.5853 0.471459 9.69636L11.7215 14.1964C11.9003 14.2679 12.0997 14.2679 12.2785 14.1964L21 10.7078V19.5C20.1716 19.5 19.5 20.1716 19.5 21V24H24V21C24 20.1716 23.3284 19.5 22.5 19.5V10.1078L23.5285 9.69636C23.8062 9.5853 23.9913 9.31994 23.9997 9.02104C24.0081 8.72214 23.8381 8.44681 23.5672 8.32036L12.3172 3.07036ZM12 12.6922L2.63703 8.94704L12 4.57765L21.363 8.94704L12 12.6922Z" fill="#160747"/>
<path d="M6.26334 13.5478C6.06823 13.4746 5.85148 13.4859 5.66503 13.579C5.47859 13.672 5.33928 13.8385 5.28048 14.0384L4.53048 16.5884C4.42133 16.9595 4.61231 17.3527 4.97146 17.4964L11.7215 20.1964C11.9003 20.2679 12.0997 20.2679 12.2785 20.1964L19.0285 17.4964C19.3877 17.3527 19.5787 16.9595 19.4695 16.5884L18.7195 14.0384C18.6607 13.8385 18.5214 13.672 18.335 13.579C18.1485 13.4859 17.9318 13.4746 17.7367 13.5478L12 15.699L6.26334 13.5478ZM6.16205 16.357L6.49192 15.2355L11.7367 17.2022C11.9064 17.2659 12.0936 17.2659 12.2633 17.2022L17.5081 15.2355L17.838 16.357L12 18.6922L6.16205 16.357Z" fill="#160747"/>
</svg>
