<svg width="24" height="21" viewBox="0 0 24 21" fill="none" xmlns="http://www.w3.org/2000/svg">
<path d="M12.3172 0.0703627C12.1161 -0.0234542 11.8839 -0.0234542 11.6828 0.0703627L0.432838 5.32036C0.161871 5.44681 -0.00809256 5.72214 0.000296991 6.02104C0.00868649 6.31994 0.193826 6.5853 0.471459 6.69636L11.7215 11.1964C11.9003 11.2679 12.0997 11.2679 12.2785 11.1964L21 7.70778V16.5C20.1716 16.5 19.5 17.1716 19.5 18V21H24V18C24 17.1716 23.3284 16.5 22.5 16.5V7.10778L23.5285 6.69636C23.8062 6.5853 23.9913 6.31994 23.9997 6.02104C24.0081 5.72214 23.8381 5.44681 23.5672 5.32036L12.3172 0.0703627ZM12 9.69223L2.63703 5.94704L12 1.57765L21.363 5.94704L12 9.69223Z" fill="#FAFAFA"/>
<path d="M6.26334 10.5478C6.06823 10.4746 5.85148 10.4859 5.66503 10.579C5.47859 10.672 5.33928 10.8385 5.28048 11.0384L4.53048 13.5884C4.42133 13.9595 4.61231 14.3527 4.97146 14.4964L11.7215 17.1964C11.9003 17.2679 12.0997 17.2679 12.2785 17.1964L19.0285 14.4964C19.3877 14.3527 19.5787 13.9595 19.4695 13.5884L18.7195 11.0384C18.6607 10.8385 18.5214 10.672 18.335 10.579C18.1485 10.4859 17.9318 10.4746 17.7367 10.5478L12 12.699L6.26334 10.5478ZM6.16205 13.357L6.49192 12.2355L11.7367 14.2022C11.9064 14.2659 12.0936 14.2659 12.2633 14.2022L17.5081 12.2355L17.838 13.357L12 15.6922L6.16205 13.357Z" fill="#FAFAFA"/>
</svg>
